<?xml version="1.0" encoding="UTF-8"?>
<svg width="128" height="128" viewBox="0 0 128 128" fill="none" xmlns="http://www.w3.org/2000/svg">
  <!-- Background -->
  <rect x="6" y="6" width="116" height="116" rx="18" fill="#F6F7F9"/>

  <!-- Clock circle -->
  <circle cx="64" cy="50" r="26" fill="#FFFFFF" stroke="#4CAF50" stroke-width="4"/>
  <!-- Clock ticks -->
  <path d="M64 26 v6 M64 68 v6 M38 50 h6 M84 50 h6" stroke="#4CAF50" stroke-opacity="0.6" stroke-width="3" stroke-linecap="round"/>
  <!-- Clock hands -->
  <path d="M64 50 L64 36" stroke="#4CAF50" stroke-width="4" stroke-linecap="round"/>
  <path d="M64 50 L78 56" stroke="#4CAF50" stroke-width="4" stroke-linecap="round"/>

  <!-- Timeline bars -->
  <g transform="translate(20,86)">
    <rect x="0" y="0" width="38" height="10" rx="5" fill="#2196F3"/>
    <rect x="44" y="0" width="24" height="10" rx="5" fill="#FF9800"/>
    <rect x="72" y="0" width="16" height="10" rx="5" fill="#9E9E9E"/>
  </g>

  <!-- Category tag -->
  <g transform="translate(86,22)">
    <rect x="0" y="0" width="24" height="14" rx="7" fill="#4CAF50"/>
    <circle cx="7" cy="7" r="3" fill="#FFFFFF"/>
    <circle cx="14" cy="7" r="3" fill="#FFFFFF" fill-opacity="0.75"/>
    <circle cx="19" cy="7" r="3" fill="#FFFFFF" fill-opacity="0.5"/>
  </g>

  <!-- Accent shadow -->
  <rect x="6" y="100" width="116" height="22" rx="18" fill="url(#g1)" opacity="0.15"/>

  <defs>
    <linearGradient id="g1" x1="6" y1="100" x2="122" y2="122" gradientUnits="userSpaceOnUse">
      <stop stop-color="#2196F3"/>
      <stop offset="0.5" stop-color="#4CAF50"/>
      <stop offset="1" stop-color="#FF9800"/>
    </linearGradient>
  </defs>
</svg>
